<?xml version="1.0" encoding="utf-8"?>
<svg viewBox="0 0 512 512" width="100%" height="100%" xmlns="http://www.w3.org/2000/svg">
  <defs/>
  <path d="M 177.873 166.935 C 178.217 167.107 178.561 167.278 178.915 167.456 C 175.649 170.721 172.384 173.987 169.019 177.351 C 168.675 177.18 168.332 177.008 167.977 176.831 C 170.943 173.47 173.898 170.324 177.352 167.456 C 177.524 167.284 177.696 167.112 177.873 166.935 Z"/>
  <path d="M 255.626 0.004 C 256.643 0.006 257.66 0.009 258.707 0.011 C 273.298 0.061 287.613 0.311 301.944 3.313 C 302.918 3.51 303.892 3.709 304.894 3.914 C 353.217 14.02 397.152 35.908 432.783 70.224 C 433.771 71.171 433.771 71.171 434.778 72.136 C 444.256 81.269 452.985 90.554 460.748 101.183 C 461.605 102.332 462.462 103.482 463.32 104.631 C 469.351 112.811 474.702 121.314 479.725 130.144 C 480.089 130.776 480.453 131.406 480.829 132.056 C 502.408 169.755 512.162 212.464 511.998 255.603 C 511.996 256.62 511.994 257.636 511.991 258.683 C 511.942 273.273 511.692 287.587 508.689 301.917 C 508.392 303.377 508.392 303.377 508.088 304.867 C 497.98 353.185 476.09 397.114 441.772 432.743 C 441.14 433.401 440.509 434.06 439.859 434.738 C 430.725 444.214 421.44 452.942 410.81 460.706 C 409.66 461.563 408.511 462.42 407.361 463.277 C 399.182 469.307 390.69 474.682 381.846 479.681 C 381.139 480.082 380.433 480.484 379.705 480.898 C 356.599 493.906 331.459 502.643 305.503 507.955 C 304.784 508.103 304.066 508.25 303.326 508.402 C 288.669 511.187 274.162 511.987 259.27 511.953 C 256.333 511.95 253.399 511.974 250.462 511.999 C 237.106 512.044 224.226 510.84 211.056 508.642 C 209.353 508.361 209.353 508.361 207.615 508.073 C 164.4 500.312 123.401 480.351 90.205 451.718 C 89.461 451.085 88.717 450.451 87.951 449.799 C 74.462 438.003 61.806 425.269 51.253 410.772 C 50.398 409.624 49.542 408.475 48.686 407.328 C 42.653 399.148 37.277 390.655 32.276 381.811 C 31.875 381.105 31.473 380.398 31.06 379.671 C 18.05 356.565 9.312 331.427 3.999 305.474 C 3.851 304.756 3.704 304.039 3.553 303.299 C 0.582 287.674 -0.057 272.22 0.004 256.352 C 0.006 255.335 0.008 254.319 0.01 253.271 C 0.06 238.681 0.311 224.368 3.312 210.038 C 3.511 209.065 3.709 208.091 3.913 207.088 C 14.022 158.77 35.912 114.841 70.229 79.212 C 70.861 78.553 71.493 77.895 72.143 77.217 C 81.276 67.741 90.562 59.013 101.191 51.249 C 102.341 50.392 103.49 49.535 104.64 48.678 C 112.82 42.648 121.313 37.273 130.156 32.274 C 130.863 31.873 131.569 31.47 132.296 31.057 C 155.404 18.049 180.544 9.312 206.5 3.999 C 207.218 3.852 207.936 3.705 208.675 3.553 C 224.303 0.583 239.757 -0.056 255.626 0.004 Z M 198.072 87.201 C 197.358 87.431 196.644 87.662 195.909 87.899 C 154.544 101.527 118.906 133.1 98.195 171.09 C 97.836 171.748 97.477 172.406 97.107 173.083 C 88.166 188.331 88.166 188.331 87.084 205.045 C 89.456 210.276 92.508 212.977 97.774 215.044 C 100.531 215.938 103.296 216.734 106.098 217.471 C 108.459 218.102 110.805 218.78 113.154 219.455 C 114.908 219.938 116.664 220.42 118.42 220.899 C 119.246 221.139 120.073 221.377 120.924 221.624 C 126.79 223.16 131.421 223.163 137.147 221.024 C 143.426 217.049 146.034 209.2 148.943 202.688 C 154.275 191.009 162.279 181.332 171.105 172.089 C 171.653 171.479 172.2 170.868 172.764 170.239 C 178.085 164.514 184.568 160.343 191.081 156.11 C 192.017 155.489 192.953 154.869 193.917 154.229 C 219.826 138.025 252.838 134.079 282.453 140.153 C 302.065 144.729 319.77 153.897 334.903 167.095 C 335.616 167.676 336.331 168.257 337.065 168.855 C 340.166 171.387 342.266 173.433 343.892 177.082 C 343.315 177.357 342.738 177.63 342.142 177.913 C 338.326 179.895 334.913 182.465 331.408 184.947 C 330.65 185.476 329.892 186.004 329.111 186.55 C 323.594 190.334 323.594 190.334 318.923 195.058 C 318.983 198.467 319.045 200.94 321.207 203.674 C 323.212 205.28 324.778 205.805 327.26 206.45 C 328.141 206.684 329.022 206.919 329.928 207.159 C 330.885 207.403 331.842 207.646 332.828 207.896 C 333.828 208.159 334.826 208.422 335.856 208.692 C 339.115 209.546 342.377 210.386 345.64 211.224 C 347.874 211.805 350.108 212.386 352.341 212.969 C 356.783 214.125 361.227 215.277 365.672 216.423 C 371.025 217.807 376.369 219.224 381.71 220.657 C 383.797 221.213 385.886 221.767 387.973 222.321 C 389.848 222.821 391.718 223.328 393.59 223.835 C 403.952 226.759 403.952 226.759 414.056 224.332 C 421.248 218.285 422.198 212.673 423.161 203.6 C 423.502 199.601 423.801 195.602 424.082 191.598 C 424.191 190.116 424.3 188.634 424.41 187.152 C 424.638 184.061 424.861 180.97 425.079 177.878 C 425.359 173.945 425.648 170.013 425.939 166.08 C 426.165 163.024 426.387 159.968 426.607 156.911 C 426.712 155.463 426.818 154.014 426.926 152.566 C 429.011 138.187 429.011 138.187 425.729 124.901 C 422.91 122.878 422.91 122.878 419.62 123.181 C 414.688 124.436 411.665 126.804 407.752 129.957 C 406.388 131.026 405.024 132.094 403.659 133.159 C 403.013 133.668 402.368 134.176 401.704 134.699 C 399.158 136.645 396.523 138.396 393.831 140.131 C 390.768 138.77 388.719 137.238 386.403 134.825 C 385.848 134.253 385.293 133.68 384.721 133.09 C 384.102 132.447 383.483 131.805 382.844 131.143 C 381.185 129.473 379.52 127.809 377.85 126.15 C 377.033 125.335 376.215 124.52 375.374 123.68 C 341.084 90.877 294.177 77.217 247.664 77.968 C 230.414 78.394 214.438 81.871 198.072 87.201 Z M 92.951 292.055 C 88.025 300.149 88.571 311.116 87.919 320.357 C 87.81 321.839 87.701 323.321 87.592 324.802 C 87.364 327.894 87.142 330.985 86.922 334.077 C 86.642 338.01 86.354 341.943 86.062 345.874 C 85.836 348.93 85.615 351.987 85.394 355.043 C 85.289 356.492 85.183 357.941 85.076 359.389 C 82.99 373.768 82.99 373.768 86.273 387.054 C 89.092 389.077 89.092 389.077 92.382 388.773 C 97.313 387.518 100.337 385.151 104.251 381.997 C 105.614 380.929 106.978 379.861 108.344 378.795 C 109.31 378.033 109.31 378.033 110.298 377.256 C 112.844 375.31 115.478 373.559 118.17 371.824 C 121.476 373.259 123.603 375.045 126.099 377.628 C 126.8 378.347 127.502 379.065 128.225 379.805 C 128.862 380.467 129.499 381.129 130.156 381.811 C 160.553 413.004 204.19 433.003 247.967 433.945 C 250.583 433.971 253.198 433.988 255.814 433.991 C 256.498 433.991 257.183 433.992 257.888 433.993 C 288.154 433.947 316.287 425.984 342.894 411.771 C 343.918 411.229 344.944 410.686 346 410.128 C 359.637 402.555 371.649 392.593 382.844 381.811 C 383.973 380.777 383.973 380.777 385.123 379.723 C 400.879 364.853 424.448 334.617 425.105 312.09 C 425.041 307.239 424.129 304.6 420.798 300.918 C 414.887 296.496 408.641 294.897 401.618 293.098 C 399.521 292.556 397.434 291.981 395.347 291.403 C 385.061 288.658 385.061 288.658 374.854 290.931 C 368.576 294.906 365.968 302.755 363.058 309.267 C 350.761 336.209 326.079 356.102 298.948 366.831 C 267.284 378.215 233.085 376.274 202.613 362.247 C 191.538 356.562 173.237 346.748 168.109 334.873 C 168.686 334.598 169.264 334.324 169.859 334.041 C 173.676 332.059 177.089 329.49 180.593 327.008 C 181.353 326.479 182.111 325.95 182.892 325.404 C 188.407 321.621 188.407 321.621 193.078 316.897 C 193.018 313.488 192.957 311.015 190.794 308.281 C 188.79 306.674 187.224 306.15 184.742 305.505 C 183.861 305.27 182.981 305.036 182.074 304.795 C 181.117 304.552 180.16 304.308 179.173 304.058 C 178.174 303.795 177.176 303.532 176.146 303.262 C 172.887 302.408 169.624 301.569 166.361 300.73 C 164.128 300.15 161.895 299.569 159.661 298.986 C 155.219 297.829 150.775 296.679 146.33 295.531 C 140.976 294.147 135.633 292.731 130.292 291.298 C 128.205 290.742 126.117 290.187 124.028 289.634 C 122.154 289.135 120.283 288.627 118.412 288.12 C 107.937 285.374 101.349 284.124 92.951 292.055 Z"/>
</svg>