<?xml version="1.0" encoding="utf-8"?>
<svg version="1.1" viewBox="0 0 512 512" preserveAspectRatio="none" class="play-button-svg" style="shape-rendering:geometricPrecision; text-rendering:geometricPrecision; image-rendering:optimizeQuality; fill-rule:evenodd; clip-rule:evenodd" xmlns="http://www.w3.org/2000/svg">
  <g transform="matrix(1.598216, 0, 0, 1.598641, -152.398514, -152.045822)">
    <path style="opacity:0.993" d="M 240.5,95.5 C 297.029,92.0287 343.529,111.695 380,154.5C 421.043,209.97 426.709,268.97 397,331.5C 361.801,391.191 309.301,419.025 239.5,415C 171.681,406.169 126.181,369.669 103,305.5C 84.0921,237.946 100.259,180.446 151.5,133C 177.694,112.214 207.361,99.7144 240.5,95.5 Z M 209.5,180.5 C 214.938,180.479 219.938,181.979 224.5,185C 259.079,204.537 293.245,224.703 327,245.5C 332.262,254.232 331.095,262.066 323.5,269C 289.5,288.667 255.5,308.333 221.5,328C 209.192,332.929 201.025,329.095 197,316.5C 196.333,275.5 196.333,234.5 197,193.5C 199.353,187.315 203.52,182.982 209.5,180.5 Z"/>
  </g>
</svg>