<?xml version="1.0" standalone="no"?>
<!DOCTYPE svg PUBLIC "-//W3C//DTD SVG 20010904//EN"
 "http://www.w3.org/TR/2001/REC-SVG-20010904/DTD/svg10.dtd">
<svg version="1.0" xmlns="http://www.w3.org/2000/svg"
 width="840.000000pt" height="546.000000pt" viewBox="0 0 840.000000 546.000000"
 preserveAspectRatio="xMidYMid meet">

<g transform="translate(0.000000,546.000000) scale(0.100000,-0.100000)"
fill="#818C98" stroke="none">
<path d="M6640 4655 l0 -385 -566 0 c-631 0 -687 -4 -888 -65 -276 -84 -584
-259 -911 -520 -248 -198 -442 -376 -913 -838 -399 -391 -572 -554 -742 -698
-335 -283 -567 -420 -815 -480 -75 -18 -124 -19 -838 -19 l-757 0 2 -312 3
-313 785 0 c699 1 796 3 885 18 405 71 756 244 1170 577 234 189 517 466 1056
1035 577 608 870 840 1202 950 56 18 137 38 180 44 47 7 290 11 613 11 l534 0
2 -385 3 -386 150 104 c83 57 371 256 640 442 270 187 549 380 622 430 73 49
131 94 129 100 -2 8 -1534 1075 -1543 1075 -2 0 -3 -173 -3 -385z"/>
<path d="M215 4257 c-3 -7 -4 -147 -3 -312 l3 -300 785 -5 785 -5 109 -38
c255 -88 520 -265 864 -575 63 -56 118 -102 122 -100 14 6 480 466 480 475 0
17 -248 232 -400 348 -422 320 -790 479 -1191 515 -57 5 -429 9 -827 10 -572
0 -724 -3 -727 -13z"/>
<path d="M6640 2016 l0 -386 -522 0 c-292 0 -563 5 -612 10 -188 22 -413 122
-629 280 -115 84 -207 163 -386 329 l-123 115 -61 -64 c-70 -76 -212 -225
-310 -326 l-69 -71 99 -88 c470 -419 885 -667 1273 -761 l115 -28 612 -3 613
-4 2 -384 3 -383 375 260 c206 142 420 290 475 328 337 230 689 478 691 486 2
5 -130 101 -294 214 -511 353 -740 511 -972 672 -124 85 -237 163 -252 173
l-28 17 0 -386z"/>
</g>
</svg>