<?xml version="1.0" encoding="utf-8"?>
<svg  viewBox="0 0 512 512" xmlns="http://www.w3.org/2000/svg">
  <defs/>
  <path d="M 512 255.988 C 512 452.759 298.667 575.748 128 477.363 C 48.793 431.701 0 347.312 0 255.988 C 0 59.218 213.333 -63.771 384 34.614 C 463.207 80.276 512 164.665 512 255.988 Z M 358.72 163.099 L 272 224.93 L 272 176.104 C 271.992 163.802 258.654 156.133 247.991 162.269 C 247.555 162.524 247.131 162.812 246.72 163.099 L 160 224.93 L 160 176.104 C 160 163.802 146.667 156.133 136 162.269 C 131.05 165.112 128 170.385 128 176.104 L 128 335.872 C 128 348.174 141.333 355.843 152 349.708 C 156.95 346.864 160 341.592 160 335.872 L 160 287.047 L 246.72 348.877 C 256.753 356.003 270.758 349.612 271.928 337.374 C 271.976 336.895 272 336.384 272 335.872 L 272 287.047 L 358.72 348.877 C 368.753 356.003 382.758 349.612 383.928 337.374 C 383.976 336.895 384 336.384 384 335.872 L 384 176.104 C 383.992 163.802 370.654 156.133 359.991 162.269 C 359.555 162.524 359.131 162.812 358.72 163.099 Z"/>
</svg>