<svg version="1.1" viewBox="0 0 512 512" class="play-button-svg" preserveAspectRatio="xMidYMid meet" xmlns="http://www.w3.org/2000/svg">
  <defs/>
  <g transform="matrix(0.1, 0, 0, -0.1, -29.231356, 368.015289)" stroke="none">
    <path d="M 2585.209 3667.407 C 2143.717 3604.112 1855.918 3506.157 1515.382 3302.711 C 1122.108 3066.11 725.82 2627.57 540.484 2222.185 C 472.678 2072.991 424.46 1950.923 404.872 1875.573 C 397.338 1846.939 385.284 1798.715 376.243 1770.082 C 303.916 1498.82 276.794 1188.376 300.903 923.143 C 318.984 733.26 326.518 683.528 365.695 519.264 C 428.981 252.524 602.263 -131.764 763.49 -354.801 C 1119.094 -850.607 1669.076 -1224.346 2246.179 -1361.484 C 2283.849 -1370.526 2330.56 -1381.075 2351.655 -1387.103 C 2434.529 -1405.187 2756.984 -1439.848 2856.432 -1439.848 C 2960.401 -1439.848 3243.679 -1408.201 3376.278 -1381.075 C 3893.109 -1278.598 4417.475 -972.675 4770.066 -570.304 C 5339.636 79.217 5546.067 953.283 5326.074 1783.645 C 5110.602 2600.444 4473.227 3278.598 3670.103 3545.339 C 3549.559 3584.521 3502.849 3598.084 3361.21 3631.239 C 3165.326 3676.449 2775.065 3694.533 2585.209 3667.407 Z M 2580.688 2032.302 C 2603.29 2020.246 2628.906 1997.64 2637.947 1982.57 C 2662.055 1937.36 2657.535 142.512 2633.426 110.865 C 2579.182 41.542 2546.032 34.007 2264.261 34.007 C 2045.775 34.007 1985.503 38.528 1947.833 58.119 C 1849.891 109.358 1854.412 58.119 1854.412 1043.703 C 1854.412 2112.173 1839.344 2033.809 2050.295 2057.921 C 2197.962 2074.498 2530.964 2057.921 2580.688 2032.302 Z M 3897.63 2038.33 C 3978.997 2000.654 3978.997 1997.64 3978.997 1043.703 C 3978.997 376.098 3974.476 156.075 3959.409 128.949 C 3950.368 107.851 3918.725 77.71 3891.603 62.64 C 3847.905 37.021 3811.742 34.007 3570.655 34.007 C 3272.309 34.007 3251.213 40.035 3195.462 131.963 C 3166.833 178.68 3165.326 214.848 3165.326 1043.703 C 3165.326 1975.035 3165.326 1978.049 3245.186 2029.288 C 3266.281 2044.358 3325.047 2057.921 3377.784 2060.935 C 3525.451 2071.484 3856.946 2056.414 3897.63 2038.33 Z"/>
  </g>
</svg>
