<?xml version="1.0" encoding="utf-8"?>
<svg viewBox="0 0 512 512" xmlns="http://www.w3.org/2000/svg">
  <defs/>
  <path d="M 245.091 0.025 C 245.901 0.023 246.712 0.021 247.522 0.019 C 249.21 0.016 250.897 0.015 252.585 0.016 C 254.285 0.016 255.985 0.012 257.686 0.005 C 270.964 -0.05 284.004 0.356 297.126 2.593 C 297.533 2.661 297.94 2.729 298.36 2.799 C 320.651 6.526 341.99 13.332 362.604 22.567 C 363.038 22.76 363.473 22.953 363.92 23.152 C 384.225 32.219 402.981 44.825 419.965 59.121 C 420.234 59.346 420.503 59.571 420.78 59.802 C 429.54 67.144 438.314 74.968 445.711 83.711 C 446.728 84.906 447.785 86.062 448.842 87.221 C 451.062 89.692 453.192 92.22 455.262 94.819 C 455.737 95.413 456.216 96.004 456.697 96.594 C 485.981 132.52 503.53 176.839 509.658 222.569 C 509.744 223.17 509.83 223.771 509.919 224.391 C 512.825 245.282 512.643 268.549 509.658 289.411 C 509.569 290.081 509.479 290.752 509.387 291.443 C 503.094 338.527 483.475 386.027 451.315 421.352 C 450.32 422.451 449.35 423.567 448.385 424.693 C 446.681 426.656 444.85 428.471 443.001 430.297 C 442 431.314 441.063 432.353 440.139 433.44 C 436.673 437.476 432.834 441.216 428.785 444.661 C 427.649 445.671 426.598 446.743 425.538 447.833 C 423.401 450.003 421.121 451.914 418.745 453.816 C 417.53 454.808 416.385 455.835 415.239 456.906 C 394.332 475.682 366.458 489.155 340.18 498.291 C 339.377 498.57 339.377 498.57 338.557 498.855 C 321.869 504.591 304.631 508.36 287.121 510.432 C 286.753 510.475 286.386 510.519 286.008 510.564 C 276.01 511.731 266.12 511.993 256.06 511.999 C 255.376 511.999 254.69 512 253.985 512 C 243.345 511.999 232.881 511.685 222.328 510.301 C 221.437 510.188 221.437 510.188 220.528 510.073 C 191.807 506.321 164.732 497.093 138.892 484.191 C 138.417 483.954 137.942 483.718 137.453 483.474 C 119.4 474.407 102.383 462.901 87.446 449.269 C 86.325 448.251 85.187 447.256 84.04 446.267 C 82.411 444.848 80.889 443.354 79.379 441.81 C 78.438 440.884 77.465 440.03 76.458 439.176 C 74.199 437.208 72.156 435.083 70.124 432.885 C 69.76 432.495 69.397 432.106 69.023 431.704 C 67.975 430.577 66.931 429.447 65.887 428.316 C 65.618 428.027 65.35 427.738 65.073 427.44 C 61.896 424.016 58.881 420.488 55.979 416.828 C 55.715 416.497 55.451 416.167 55.18 415.827 C 45.648 403.842 37.239 391.2 29.976 377.711 C 29.419 376.684 28.849 375.665 28.275 374.647 C 13.191 347.531 4.45 315.979 1.224 285.233 C 1.179 284.817 1.134 284.401 1.088 283.972 C 0.172 275.235 0.001 266.528 0.016 257.754 C 0.019 256.26 0.015 254.767 0.005 253.273 C -0.214 218.521 6.884 184.362 21.04 152.595 C 21.265 152.081 21.49 151.567 21.722 151.038 C 25.105 143.327 28.852 135.882 33.034 128.573 C 33.284 128.135 33.535 127.696 33.793 127.244 C 42.525 112.077 52.926 97.909 64.705 84.976 C 65.348 84.262 65.987 83.545 66.609 82.813 C 69.302 79.654 72.216 76.724 75.153 73.795 C 76.021 72.928 76.886 72.059 77.751 71.189 C 80.659 68.276 83.598 65.433 86.745 62.776 C 87.272 62.318 87.798 61.86 88.324 61.401 C 113.047 40.2 141.519 23.816 172.267 13.167 C 172.798 12.982 173.33 12.798 173.877 12.607 C 189.625 7.194 205.932 3.508 222.425 1.287 C 223.098 1.196 223.098 1.196 223.783 1.104 C 230.865 0.216 237.964 0.028 245.091 0.025 Z M 345.656 88.299 C 343.431 92.94 343.69 98.05 343.728 103.087 C 343.73 103.841 343.732 104.595 343.733 105.348 C 343.737 107.314 343.747 109.28 343.759 111.246 C 343.77 113.259 343.774 115.272 343.779 117.285 C 343.79 121.222 343.808 125.159 343.831 129.096 C 343.293 129.132 342.755 129.169 342.201 129.206 C 304.35 131.816 270.284 143.426 241.101 168.261 C 240.537 168.734 239.972 169.208 239.408 169.682 C 231.915 176.011 224.46 182.661 218.074 190.126 C 216.476 191.974 214.818 193.768 213.169 195.572 C 211.731 197.167 210.339 198.797 208.965 200.447 C 208.248 201.159 208.248 201.159 207.205 201.159 C 206.41 200.274 206.41 200.274 205.445 199.005 C 199.357 191.212 192.681 183.885 185.627 176.958 C 184.773 176.085 183.995 175.175 183.218 174.233 C 181.795 172.531 180.207 171.126 178.52 169.692 C 177.547 168.84 176.651 167.953 175.754 167.02 C 173.375 164.611 170.75 162.52 168.095 160.428 C 167.765 160.167 167.435 159.907 167.095 159.639 C 148.349 144.916 127.233 134.462 103.954 129.096 C 103.363 128.956 102.772 128.817 102.163 128.673 C 96.379 127.509 88.715 126.638 83.521 129.895 C 80.332 132.477 79.908 135.661 79.445 139.54 C 79.303 142.586 79.31 145.627 79.324 148.676 C 79.325 149.554 79.325 150.433 79.325 151.311 C 79.326 153.143 79.33 154.975 79.337 156.808 C 79.346 159.14 79.348 161.472 79.348 163.804 C 79.348 165.615 79.351 167.427 79.355 169.238 C 79.356 170.097 79.357 170.956 79.358 171.815 C 78.741 181.779 78.741 181.779 82.671 190.291 C 86.303 192.634 90.29 193.235 94.469 193.979 C 107.579 196.495 120.123 202.131 130.549 210.559 C 130.974 210.897 130.974 210.897 131.408 211.243 C 136.167 215.076 140.497 219.371 144.824 223.679 C 145.09 223.943 145.356 224.206 145.63 224.478 C 149.194 228.018 152.444 231.691 155.58 235.624 C 156.067 236.2 156.558 236.772 157.054 237.34 C 160.746 241.579 164.086 246.043 167.289 250.663 C 167.854 251.469 168.436 252.265 169.028 253.052 C 169.473 253.662 169.473 253.662 169.926 254.285 C 170.2 254.65 170.473 255.014 170.754 255.39 C 171.224 256.512 171.224 256.512 170.878 257.827 C 170.217 259.055 169.53 260.105 168.665 261.196 C 168.366 261.577 168.067 261.957 167.759 262.349 C 167.439 262.75 167.12 263.15 166.791 263.562 C 166.123 264.409 165.456 265.255 164.789 266.102 C 164.461 266.515 164.134 266.929 163.797 267.355 C 163.013 268.354 162.24 269.358 161.476 270.373 C 158.377 274.49 155.081 278.392 151.671 282.254 C 150.963 283.057 150.261 283.864 149.558 284.672 C 147.557 286.949 145.524 289.047 143.205 290.998 C 142.005 292.036 140.858 293.122 139.711 294.217 C 126.799 306.461 111.416 314.196 93.992 317.444 C 88.869 318.389 88.869 318.389 84.66 321.265 C 83.203 324.011 82.827 326.315 82.741 329.394 C 82.723 329.839 82.706 330.283 82.688 330.741 C 82.482 336.806 82.495 342.876 82.505 348.943 C 82.508 351.007 82.505 353.071 82.502 355.135 C 82.503 356.47 82.503 357.804 82.504 359.139 C 82.503 359.745 82.502 360.351 82.501 360.975 C 82.085 370.206 82.085 370.206 85.348 378.474 C 86.231 379.289 86.231 379.289 87.788 380.274 C 88.45 380.742 88.45 380.742 89.124 381.22 C 104.211 386.439 128.107 374.538 141.446 368.072 C 154.252 361.715 166.193 353.231 176.617 343.444 C 177.732 342.405 178.861 341.407 180.024 340.423 C 184.728 336.334 189.113 331.777 193.125 327.009 C 196.485 323.079 199.866 319.166 203.326 315.325 C 203.581 315.036 203.835 314.747 204.098 314.449 C 205.378 313.044 206.297 312.04 208.248 311.866 C 209.128 312.822 210.009 313.779 210.888 314.738 C 211.152 315.025 211.416 315.312 211.687 315.608 C 213.097 317.148 214.485 318.699 215.842 320.286 C 217.658 322.387 219.63 324.316 221.605 326.267 C 222.631 327.31 223.577 328.365 224.511 329.49 C 227.205 332.641 230.346 335.376 233.398 338.172 C 234.179 338.889 234.955 339.61 235.731 340.333 C 239.266 343.592 243.016 346.552 246.837 349.464 C 247.149 349.702 247.462 349.941 247.784 350.187 C 275.77 371.397 309.519 384.164 344.873 383.929 C 344.871 384.334 344.869 384.738 344.866 385.156 C 344.845 388.996 344.829 392.836 344.819 396.677 C 344.814 398.65 344.807 400.624 344.795 402.598 C 344.783 404.508 344.777 406.418 344.774 408.327 C 344.772 409.051 344.769 409.774 344.763 410.498 C 344.532 418.749 344.532 418.749 347.481 426.227 C 349.582 427.279 351.98 427.054 354.26 426.749 C 358.225 425.107 361.355 421.506 364.441 418.592 C 365.603 417.505 366.792 416.45 367.981 415.392 C 369.778 413.779 371.496 412.116 373.186 410.392 C 374.134 409.459 375.121 408.59 376.129 407.722 C 377.593 406.459 378.977 405.152 380.334 403.773 C 381.668 402.415 383.028 401.129 384.472 399.889 C 386.032 398.547 387.494 397.144 388.938 395.679 C 390.69 393.899 392.503 392.245 394.397 390.619 C 395.998 389.189 397.483 387.647 398.99 386.118 C 400.372 384.754 401.824 383.494 403.296 382.23 C 404.703 380.978 406.012 379.639 407.32 378.283 C 408.319 377.31 409.339 376.402 410.395 375.492 C 412.604 373.562 414.702 371.538 416.781 369.468 C 417.154 369.099 417.526 368.729 417.91 368.348 C 418.689 367.572 419.468 366.796 420.245 366.019 C 421.434 364.834 422.628 363.654 423.822 362.475 C 424.582 361.717 425.343 360.959 426.102 360.199 C 426.458 359.85 426.813 359.501 427.179 359.141 C 429.526 356.779 431.59 354.374 431.829 350.9 C 431.719 347.781 429.658 346.082 427.54 344.01 C 426.568 343.017 425.658 341.977 424.74 340.933 C 421.628 337.451 418.323 334.164 415.019 330.866 C 413.934 329.782 412.851 328.695 411.769 327.608 C 411.067 326.906 410.366 326.204 409.664 325.502 C 409.347 325.183 409.03 324.864 408.703 324.536 C 406.764 322.605 404.757 320.784 402.689 318.992 C 401.344 317.805 400.089 316.555 398.829 315.276 C 398.579 315.023 398.328 314.771 398.07 314.51 C 397.022 313.451 395.976 312.389 394.929 311.328 C 392.221 308.582 389.508 305.887 386.576 303.379 C 384.036 301.123 381.705 298.636 379.325 296.214 C 377.101 293.965 374.842 291.813 372.444 289.752 C 370.855 288.346 369.394 286.82 367.916 285.299 C 360.637 277.422 360.637 277.422 351.229 273.68 C 348.352 274.696 346.727 276.232 345.395 278.967 C 344.767 281.331 344.776 283.705 344.745 286.135 C 344.729 287.054 344.712 287.973 344.695 288.892 C 344.687 289.372 344.679 289.852 344.671 290.346 C 344.547 297.519 344.374 304.677 343.831 311.833 C 343.787 312.407 343.743 312.98 343.699 313.571 C 343.386 317.379 343.386 317.379 342.788 319.176 C 328.121 317.708 314.625 314.712 301.559 307.707 C 300.887 307.347 300.214 306.992 299.537 306.64 C 293.341 303.418 287.791 299.456 282.297 295.155 C 281.984 294.911 281.671 294.667 281.349 294.416 C 276.788 290.808 272.694 286.687 268.576 282.589 C 268.309 282.325 268.041 282.06 267.766 281.787 C 264.195 278.24 260.901 274.577 257.788 270.612 C 257.518 270.273 257.248 269.934 256.97 269.586 C 256.053 268.433 255.146 267.271 254.243 266.107 C 253.015 264.523 251.773 262.958 250.491 261.418 C 250.121 260.963 250.121 260.963 249.743 260.499 C 249.272 259.921 248.794 259.349 248.308 258.784 C 247.674 257.995 247.674 257.995 246.837 256.512 C 247.409 254.532 248.402 253.058 249.641 251.431 C 249.991 250.971 250.34 250.511 250.7 250.037 C 251.071 249.557 251.442 249.076 251.823 248.581 C 252.39 247.842 252.39 247.842 252.968 247.088 C 255.157 244.252 257.369 241.485 259.827 238.878 C 260.749 237.892 261.626 236.887 262.504 235.861 C 264.777 233.25 267.206 230.796 269.651 228.347 C 270.428 227.568 271.2 226.786 271.971 226.003 C 274.847 223.106 277.798 220.411 280.996 217.864 C 282.347 216.785 283.658 215.667 284.97 214.541 C 301.271 201.278 321.446 194.275 342.266 193.326 C 342.276 193.765 342.286 194.205 342.297 194.658 C 342.504 203.133 342.765 211.604 343.212 220.07 C 343.254 220.881 343.296 221.692 343.336 222.503 C 343.375 229.427 343.375 229.427 345.645 235.742 C 345.939 235.984 346.233 236.224 346.535 236.473 C 346.823 236.727 347.11 236.982 347.405 237.244 C 349.152 237.977 350.358 237.636 352.174 237.191 C 353.85 236.317 353.85 236.317 355.433 235.135 C 355.868 234.823 355.868 234.823 356.312 234.506 C 358.78 232.703 361.045 230.703 363.265 228.603 C 364.391 227.548 365.53 226.527 366.693 225.515 C 368.793 223.683 370.84 221.802 372.87 219.893 C 373.228 219.556 373.587 219.22 373.956 218.873 C 376.567 216.411 379.125 213.9 381.63 211.33 C 383.011 209.922 384.428 208.593 385.925 207.309 C 388.064 205.442 390.074 203.474 392.067 201.453 C 392.421 201.096 392.776 200.739 393.141 200.371 C 394.261 199.242 395.381 198.112 396.499 196.982 C 397.975 195.49 399.453 193.999 400.932 192.51 C 401.427 192.007 401.427 192.007 401.932 191.494 C 403.541 189.875 405.173 188.317 406.901 186.826 C 409.161 184.871 411.26 182.778 413.359 180.652 C 413.755 180.254 414.15 179.857 414.558 179.447 C 415.807 178.189 417.056 176.929 418.303 175.669 C 419.956 174 421.611 172.332 423.267 170.665 C 423.645 170.283 424.023 169.9 424.413 169.505 C 424.764 169.151 425.116 168.797 425.479 168.432 C 425.787 168.121 426.095 167.809 426.413 167.489 C 427.266 166.694 427.266 166.694 428.83 165.65 C 429.279 161.978 428.342 158.85 426.264 155.846 C 424.194 153.238 422.017 150.929 419.46 148.804 C 418.26 147.774 417.162 146.673 416.054 145.545 C 414.29 143.754 412.466 142.087 410.56 140.451 C 409.11 139.161 407.766 137.772 406.405 136.388 C 405.405 135.402 404.375 134.481 403.311 133.567 C 401.751 132.225 400.289 130.823 398.846 129.357 C 397.412 127.902 395.963 126.509 394.413 125.179 C 392.435 123.481 390.621 121.652 388.793 119.796 C 387.411 118.432 385.959 117.172 384.487 115.908 C 383.036 114.617 381.692 113.229 380.331 111.845 C 379.332 110.859 378.302 109.938 377.237 109.023 C 375.678 107.682 374.216 106.279 372.772 104.813 C 371.069 103.087 369.321 101.467 367.48 99.891 C 366.49 99.017 365.528 98.128 364.571 97.219 C 357.472 89.906 357.472 89.906 348.218 87.148 C 346.859 87.229 346.859 87.229 345.656 88.299 Z"/>
  <path d="M 280.733 217.347 C 281.077 217.52 281.421 217.692 281.776 217.87 C 274.548 225.107 267.32 232.345 259.874 239.802 C 259.53 239.63 259.185 239.457 258.831 239.28 C 262.738 234.904 266.815 230.705 270.955 226.551 C 271.201 226.304 271.446 226.057 271.699 225.802 C 274.616 222.868 277.571 220.018 280.733 217.347 Z"/>
  <path d="M 206.684 311.343 C 207.2 311.516 207.716 311.688 208.248 311.866 C 205.839 314.278 203.43 316.691 200.948 319.176 C 200.603 319.004 200.259 318.832 199.905 318.654 C 200.839 317.631 201.773 316.609 202.707 315.586 C 202.972 315.296 203.237 315.006 203.51 314.707 C 204.552 313.568 205.593 312.436 206.684 311.343 Z"/>
</svg>